<svg xmlns="http://www.w3.org/2000/svg" viewBox="0 0 210.361 221.516"><title>Asset 6</title><polygon points="159.98 2 159.98 15 15 15 15 194 2 194 2 2 159.98 2" style="fill:none;stroke:#000;stroke-miterlimit:10;stroke-width:4px"/><rect x="15" y="15" width="164.03" height="197.29" style="fill:none;stroke:#000;stroke-miterlimit:10;stroke-width:4px"/><path d="M105.38,104.97a1.62,1.62,0,0,1-.01.22H50.3a1.62,1.62,0,0,1-.01-.22,27.545,27.545,0,1,1,55.09,0Z"/><rect x="117.523" y="55.143" width="32" height="4.5" rx="2.25"/><rect x="117.697" y="77.512" width="32" height="4.5" rx="2.25"/><rect x="117.697" y="99.882" width="32" height="4.5" rx="2.25"/><rect x="50.166" y="123.233" width="72" height="4.5" rx="2.25"/><rect x="50.166" y="145.449" width="72" height="4.5" rx="2.25"/><rect x="50.166" y="167.665" width="72" height="4.5" rx="2.25"/><path d="M143.148,134.924h59.075V194H143.148Z" style="fill:none"/><rect x="137.329" y="129.618" width="71.033" height="89.898" style="stroke:#000;stroke-miterlimit:10;stroke-width:4px"/><text transform="translate(158.25 208.07)" style="font-size:21px;fill:#fff;stroke:#efefef;stroke-miterlimit:10;font-family:Ubuntu-Bold, Ubuntu;font-weight:700"><tspan style="letter-spacing:0.01999627976190476em">C</tspan><tspan x="14.027" y="0">V</tspan></text><path d="M190.075,180.333h-34.46v-34.46h17.23V140.95h-17.23a4.922,4.922,0,0,0-4.923,4.923v34.46a4.922,4.922,0,0,0,4.923,4.923h34.46A4.937,4.937,0,0,0,195,180.333V163.1h-4.923ZM177.768,140.95v4.923H186.6l-24.2,24.2,3.471,3.47,24.2-24.2v8.837H195V140.95Z" style="fill:#fff"/><path d="M94.46,54.69A16.625,16.625,0,1,1,64.3,45.04L79.33,49.5l11.15-5.6A16.548,16.548,0,0,1,94.46,54.69Z"/><polygon points="52.169 39.346 79.098 47.377 104.421 34.81 77.114 26.684 52.169 39.346"/></svg>