<?xml-stylesheet type="text/css"?>   
<svg xmlns:x="http://ns.adobe.com/Extensibility/1.0/" xmlns:i="http://ns.adobe.com/AdobeIllustrator/10.0/" xmlns:graph="http://ns.adobe.com/Graphs/1.0/" xmlns="http://www.w3.org/2000/svg" xmlns:xlink="http://www.w3.org/1999/xlink" version="1.1" id="Livello_1" x="200px" y="0px" viewBox="510 200 700 1200" style="enable-background:new 0 0 5435.8 1604;" xml:space="preserve" width="552" height="650">
<style type="text/css">
	.st0{fill-rule:evenodd;clip-rule:evenodd;}
	.st1{fill-rule:evenodd;clip-rule:evenodd;fill:#A6A6A6;}
	.st2{fill:#FFFFFF;}
	.st3{fill-rule:evenodd;clip-rule:evenodd;fill:#FFFFFF;}
	.st4{fill-rule:evenodd;clip-rule:evenodd;fill:url(#SVGID_1_);}
	.st5{fill-rule:evenodd;clip-rule:evenodd;fill:url(#SVGID_2_);}
	.st6{fill-rule:evenodd;clip-rule:evenodd;fill:url(#SVGID_3_);}
	.st7{fill-rule:evenodd;clip-rule:evenodd;fill:url(#SVGID_4_);}
	.st8{opacity:0.2;fill-rule:evenodd;clip-rule:evenodd;enable-background:new    ;}
	.st9{opacity:0.12;fill-rule:evenodd;clip-rule:evenodd;enable-background:new    ;}
	.st10{opacity:0.25;fill-rule:evenodd;clip-rule:evenodd;fill:#FFFFFF;enable-background:new    ;}
</style>
<metadata>
	<sfw xmlns="http://ns.adobe.com/SaveForWeb/1.0/">
		<slices/>
		<sliceSourceBounds bottomLeftOrigin="true" height="1604" width="5435.8" x="-2656.9" y="-784"/>
	</sfw>
</metadata>




<linearGradient id="SVGID_1_" gradientUnits="userSpaceOnUse" x1="1682.1077" y1="1339.4783" x2="1624.2924" y2="1309.6345" gradientTransform="matrix(11.64 0 0 -22.55 -18705.5957 30554.3691)">
	<stop offset="0" style="stop-color:#00A0FF"/>
	<stop offset="6.569999e-03" style="stop-color:#00A1FF"/>
	<stop offset="0.2601" style="stop-color:#00BEFF"/>
	<stop offset="0.5122" style="stop-color:#00D2FF"/>
	<stop offset="0.7604" style="stop-color:#00DFFF"/>
	<stop offset="1" style="stop-color:#00E3FF"/>
</linearGradient>
<path class="st4" d="M418.4,302.1c-11.6,12.5-18.3,31.6-18.3,56.6v886.7c0,25,6.7,44.1,18.7,56.1l3.1,2.7l496.8-496.8v-11.1  L421.5,299.4C421.5,299.4,418.4,302.1,418.4,302.1z"/>
<linearGradient id="SVGID_2_" gradientUnits="userSpaceOnUse" x1="1712.6624" y1="1274.8376" x2="1606.5613" y2="1274.8376" gradientTransform="matrix(9.145 0 0 -7.7 -14305.5381 10618.251)">
	<stop offset="0" style="stop-color:#FFE000"/>
	<stop offset="0.4087" style="stop-color:#FFBD00"/>
	<stop offset="0.7754" style="stop-color:#FFA500"/>
	<stop offset="1" style="stop-color:#FF9C00"/>
</linearGradient>
<path class="st5" d="M1084,973.5L918.3,807.8v-11.6L1084,630.5l3.6,2.2l196,111.4c56.1,31.6,56.1,83.8,0,115.8l-196,111.4  C1087.6,971.3,1084,973.5,1084,973.5z"/>
<linearGradient id="SVGID_3_" gradientUnits="userSpaceOnUse" x1="1707.4414" y1="1290.0475" x2="1646.682" y2="1211.2225" gradientTransform="matrix(15.02 0 0 -11.5775 -24650.2285 15829.6484)">
	<stop offset="0" style="stop-color:#FF3A44"/>
	<stop offset="1" style="stop-color:#C31162"/>
</linearGradient>
<path class="st6" d="M1087.6,971.3L918.3,802l-499.9,499.9c18.3,19.6,49,21.8,83.3,2.7L1087.6,971.3"/>
<linearGradient id="SVGID_4_" gradientUnits="userSpaceOnUse" x1="1660.6357" y1="1365.6676" x2="1687.767" y2="1330.4501" gradientTransform="matrix(15.02 0 0 -11.5715 -24650.2285 15809.9922)">
	<stop offset="0" style="stop-color:#32A071"/>
	<stop offset="6.850000e-02" style="stop-color:#2DA771"/>
	<stop offset="0.4762" style="stop-color:#15CF74"/>
	<stop offset="0.8009" style="stop-color:#06E775"/>
	<stop offset="1" style="stop-color:#00F076"/>
</linearGradient>
<path class="st7" d="M1087.6,632.7L501.7,299.9c-34.3-19.6-65.1-16.9-83.3,2.7L918.3,802L1087.6,632.7z"/>
<path class="st8" d="M1084,967.7l-581.9,330.6c-32.5,18.7-61.5,17.4-80.2,0.4l-3.1,3.1l3.1,2.7c18.7,16.9,47.7,18.3,80.2-0.4  L1088,971.3C1088,971.3,1084,967.7,1084,967.7z"/>
<path class="st9" d="M1283.6,854.1l-200.1,113.6l3.6,3.6l196-111.4c28.1-16,41.9-37,41.9-57.9C1323.3,821.2,1309,839.4,1283.6,854.1  z"/>
<path class="st10" d="M501.7,305.7l781.9,444.2c25.4,14.3,39.7,33,41.9,52.1c0-20.9-13.8-41.9-41.9-57.9L501.7,299.9  c-56.1-32.1-101.6-5.3-101.6,58.8v5.8C400.1,300.3,445.6,274,501.7,305.7z"/>
</svg>
